Coordinates
version=1
nRows=8
nColumns=33
inDegrees=yes

Units are S.I. units (second, meters, Newtons, ...)
Angles are in degrees.

endheader
time	ground_thorax_rot_x	ground_thorax_rot_y	ground_thorax_rot_z	ground_thorax_tx	ground_thorax_ty	ground_thorax_tz	clav_prot_r	clav_elev_r	scapula_abduction_r	scapula_elevation_r	scapula_upward_rot_r	scapula_winging_r	shoulder_elv_r	plane_of_elev_r	axial_rot_r	elbow_flexion_r	pro_sup_r	wrist_flex_r	wrist_dev_r	clav_prot_l	clav_elev_l	scapula_abduction_l	scapula_elevation_l	scapula_upward_rot_l	scapula_winging_l	shoulder_elv_l	plane_of_elev_l	axial_rot_l	elbow_flexion_l	pro_sup_l	wrist_flex_l	wrist_dev_l
      4.06000000	    -26.76544973	    -35.20739869	     46.81841366	    -93.04043907	    857.29610706	    -49.59413526	     22.09863205	    -45.00000000	     45.00000000	    -45.00000000	    -22.40230316	   2402.56060915	  -1533.14639492	    144.49160173	   -179.99999979	   3591.01663848	    421.85225346	     30.26721929	     15.95467590	     -2.72556613	     34.35627062	    -32.15591243	    -45.00000000	    -45.00000000	   2972.62230538	  -6040.69378891	     26.28350771	     41.59091491	   1788.28400474	   -327.37963684	     15.30132655	    -19.77672090
      4.07000000	    -26.79902576	    -35.13358608	     46.77028465	    -93.60760853	    857.03241216	    -49.59074838	     23.29859741	    -45.00000000	     45.00000000	    -45.00000000	    -22.01888321	   2402.61501204	  -1533.02471699	    144.64718367	   -179.99999979	   3590.86038516	    421.48063375	     30.33699363	     16.30504684	     -2.34284276	     34.20311273	    -32.21178242	    -45.00000000	    -45.00000000	   2972.66695250	  -6040.82307249	     26.25474726	     41.27880402	   1788.42367148	   -326.32037686	     15.18929397	    -19.91003778
      4.08000000	    -26.75214744	    -35.11770428	     46.80367623	    -94.09709776	    856.74398464	    -49.57290173	     22.57672017	    -45.00000000	     44.98689305	    -45.00000000	    -22.42092586	   2402.51953430	  -1533.17391627	    144.55890889	   -179.99999979	   3590.84883565	    421.17252414	     30.20743134	     16.11367203	     -2.71512442	     34.36524334	    -32.02084089	    -45.00000000	    -45.00000000	   2972.66780278	  -6040.74871585	     26.32147384	     41.32180245	   1788.50103631	   -325.63321238	     15.02483164	    -20.30441726
      4.09000000	    -26.62734905	    -35.12708199	     46.98819655	    -94.50488613	    856.43284598	    -49.53705376	     23.14762925	    -45.00000000	     45.00000000	    -45.00000000	    -22.38123446	   2402.38388348	  -1533.15178137	    144.49971791	   -179.99999979	   3590.79805575	    421.09118979	     30.37714759	     16.41963065	     -2.34624909	     34.12193596	    -32.07480348	    -45.00000000	    -45.00000000	   2972.66914272	  -6040.83874246	     26.20248529	     41.26968376	   1788.60152123	   -325.06114585	     14.93546181	    -20.23297628
      4.10000000	    -26.61899844	    -35.08239421	     46.95753066	    -94.82817886	    856.10118632	    -49.48574201	     22.79478800	    -45.00000000	     44.97638133	    -45.00000000	    -22.68662464	   2402.47869580	  -1533.35368576	    144.58814061	   -179.99999979	   3590.75826423	    420.91409775	     30.14856510	     16.01674234	     -2.85107955	     34.44286971	    -31.91749346	    -45.00000000	    -45.00000000	   2972.64388696	  -6040.82310542	     26.28296381	     41.22836577	   1788.55168719	   -324.70172364	     14.87127012	    -20.66292098
      4.11000000	    -26.44290376	    -35.12324985	     47.28943642	    -95.06229002	    855.75147656	    -49.42128353	     23.10894523	    -45.00000000	     45.00000000	    -45.00000000	    -22.71293049	   2402.23008076	  -1533.28551587	    144.45721820	   -179.99999979	   3590.76205725	    420.96853929	     30.48929377	     16.50521715	     -2.33811781	     34.02887732	    -31.97146844	    -45.00000000	    -45.00000000	   2972.64154307	  -6040.84292804	     26.18109706	     41.22330671	   1788.64391226	   -324.32083186	     14.77947344	    -20.38678088
      4.12000000	    -26.45143049	    -35.05804870	     47.16313946	    -95.20047831	    855.39261090	    -49.34754465	     22.93594919	    -45.00000000	     44.98440841	    -45.00000000	    -22.95824052	   2402.39539306	  -1533.52762372	    144.59206183	   -179.99999979	   3590.73846722	    420.78437815	     30.02436227	     15.74587039	     -3.03714958	     34.58806265	    -31.77717252	    -45.00000000	    -45.00000000	   2972.59237504	  -6040.86076893	     26.28562305	     41.21057307	   1788.63204184	   -324.18066106	     14.78712657	    -20.99455134
      4.13000000	    -26.28496887	    -35.07314899	     47.47622936	    -95.24752200	    855.01621592	    -49.26431383	     23.11222391	    -45.00000000	     44.98792530	    -45.00000000	    -23.03467298	   2402.19627152	  -1533.48693638	    144.53250688	   -179.99999979	   3590.87131235	    420.85137383	     30.32019166	     16.14521224	     -2.58392084	     34.22276635	    -31.85971089	    -45.00000000	    -45.00000000	   2972.55310523	  -6040.93523673	     26.15362096	     41.22224607	   1788.74113943	   -323.90538961	     14.69429486	    -20.69540771
